<svg width="24" height="25" viewBox="0 0 24 25" fill="none" xmlns="http://www.w3.org/2000/svg">
<g clip-path="url(#clip0_1329_504)">
<path d="M12 2.5C6.48 2.5 2 6.98 2 12.5C2 18.02 6.48 22.5 12 22.5C17.52 22.5 22 18.02 22 12.5C22 6.98 17.52 2.5 12 2.5ZM16 13.5H13V16.5C13 17.05 12.55 17.5 12 17.5C11.45 17.5 11 17.05 11 16.5V13.5H8C7.45 13.5 7 13.05 7 12.5C7 11.95 7.45 11.5 8 11.5H11V8.5C11 7.95 11.45 7.5 12 7.5C12.55 7.5 13 7.95 13 8.5V11.5H16C16.55 11.5 17 11.95 17 12.5C17 13.05 16.55 13.5 16 13.5Z" fill="#C62828"/>
</g>
<defs>
<clipPath id="clip0_1329_504">
<rect width="24" height="24" fill="white" transform="translate(0 0.5)"/>
</clipPath>
</defs>
</svg>
