<svg width="21" height="21" viewBox="0 0 21 21" fill="none" xmlns="http://www.w3.org/2000/svg">
<path d="M18.0418 3.89919C14.1385 -0.00403666 7.80286 -0.00403666 3.89964 3.89919C-0.00359425 7.80242 -0.00359392 14.1381 3.89964 18.0413C7.80287 21.9446 14.1385 21.9446 18.0418 18.0413C21.945 14.1381 21.945 7.80242 18.0418 3.89919ZM13.092 14.5058L10.9707 12.3845L8.84938 14.5058C8.46047 14.8947 7.82408 14.8947 7.43517 14.5058C7.04626 14.1169 7.04626 13.4805 7.43517 13.0916L9.55649 10.9703L7.43517 8.84894C7.04626 8.46003 7.04626 7.82364 7.43517 7.43473C7.82408 7.04582 8.46047 7.04582 8.84938 7.43473L10.9707 9.55605L13.092 7.43473C13.4809 7.04582 14.1173 7.04582 14.5062 7.43473C14.8951 7.82364 14.8951 8.46003 14.5062 8.84894L12.3849 10.9703L14.5062 13.0916C14.8951 13.4805 14.8951 14.1169 14.5062 14.5058C14.1173 14.8947 13.4809 14.8947 13.092 14.5058Z" fill="#C4C4C4"/>
</svg>
