<svg width="7" height="8" viewBox="0 0 7 8" fill="none" xmlns="http://www.w3.org/2000/svg">
<g clip-path="url(#clip0_1321_1207)">
<path d="M3.37457 4.33831C2.97791 4.41998 2.74166 4.67665 2.74166 5.04123C2.74166 5.43206 3.06541 5.74706 3.46791 5.74706C4.06582 5.74706 4.54999 5.2629 4.54999 4.66498C4.54999 4.3529 4.50624 4.04665 4.41582 3.75498C4.18541 4.06706 3.77416 4.25665 3.37457 4.33831ZM3.93749 0.695396C3.93749 0.695396 4.15332 1.46831 4.15332 2.0954C4.15332 2.69623 3.75957 3.18331 3.15874 3.18331C2.55499 3.18331 2.09999 2.69623 2.09999 2.0954L2.10874 1.9904C1.51957 2.6904 1.16666 3.59748 1.16666 4.58331C1.16666 5.87248 2.21082 6.91665 3.49999 6.91665C4.78916 6.91665 5.83332 5.87248 5.83332 4.58331C5.83332 3.01123 5.07791 1.60831 3.93749 0.695396ZM3.49999 6.33331C2.53457 6.33331 1.74999 5.54873 1.74999 4.58331C1.74999 4.13706 1.83749 3.69665 2.00082 3.29123C2.29541 3.58581 2.70374 3.76665 3.15874 3.76665C3.93457 3.76665 4.54416 3.2329 4.69874 2.47456C5.05749 3.11623 5.24999 3.83665 5.24999 4.58331C5.24999 5.54873 4.46541 6.33331 3.49999 6.33331Z" fill="white"/>
</g>
<defs>
<clipPath id="clip0_1321_1207">
<rect width="7" height="7" fill="white" transform="translate(0 0.5)"/>
</clipPath>
</defs>
</svg>
