<svg width="84" height="84" viewBox="0 0 84 84" fill="none" xmlns="http://www.w3.org/2000/svg">
<path d="M42 14V7.735C42 6.16 40.11 5.39 39.025 6.51L29.225 16.275C28.525 16.975 28.525 18.06 29.225 18.76L38.99 28.525C40.11 29.61 42 28.84 42 27.265V21C53.585 21 63 30.415 63 42C63 44.765 62.475 47.46 61.46 49.875C60.935 51.135 61.32 52.57 62.265 53.515C64.05 55.3 67.06 54.67 68.005 52.325C69.3 49.14 70 45.64 70 42C70 26.53 57.47 14 42 14ZM42 63C30.415 63 21 53.585 21 42C21 39.235 21.525 36.54 22.54 34.125C23.065 32.865 22.68 31.43 21.735 30.485C19.95 28.7 16.94 29.33 15.995 31.675C14.7 34.86 14 38.36 14 42C14 57.47 26.53 70 42 70V76.265C42 77.84 43.89 78.61 44.975 77.49L54.74 67.725C55.44 67.025 55.44 65.94 54.74 65.24L44.975 55.475C43.89 54.39 42 55.16 42 56.735V63Z" fill="#DADADA"/>
</svg>
