<svg width="18" height="19" viewBox="0 0 18 19" fill="none" xmlns="http://www.w3.org/2000/svg">
<path fill-rule="evenodd" clip-rule="evenodd" d="M11.625 11H11.0325L10.8225 10.7975C11.5575 9.9425 12 8.8325 12 7.625C12 4.9325 9.8175 2.75 7.125 2.75C4.4325 2.75 2.25 4.9325 2.25 7.625C2.25 10.3175 4.4325 12.5 7.125 12.5C8.3325 12.5 9.4425 12.0575 10.2975 11.3225L10.5 11.5325V12.125L14.25 15.8675L15.3675 14.75L11.625 11ZM7.125 11C5.2575 11 3.75 9.4925 3.75 7.625C3.75 5.7575 5.2575 4.25 7.125 4.25C8.9925 4.25 10.5 5.7575 10.5 7.625C10.5 9.4925 8.9925 11 7.125 11Z" fill="#949494"/>
</svg>
