<svg width="84" height="21" viewBox="0 0 84 21" fill="none" xmlns="http://www.w3.org/2000/svg">
<path d="M63.1837 0.446642H61.3532V4.10774H63.1837V0.446642ZM63.1837 4.10774C64.8976 4.10774 66.1821 5.43645 66.1821 6.94729H69.8431C69.8431 3.30001 66.8031 0.446642 63.1837 0.446642V4.10774ZM66.1821 6.94729C66.1821 8.46438 64.8911 9.7993 63.1837 9.7993V13.4604C66.8096 13.4604 69.8431 10.5883 69.8431 6.94729H66.1821Z" fill="black"/>
<path d="M38.145 20.1074H36.3937V16.6048H38.145C38.1893 16.6048 38.2326 16.6048 38.2746 16.6048C39.5484 16.5546 40.0364 15.5541 40.1566 15.2482C40.2769 14.9423 40.598 13.8682 39.7375 12.9353L36.7323 10.6761C35.9395 10.0873 35.3174 9.29838 34.9296 8.39013C34.5725 7.53262 34.4284 6.60135 34.5098 5.67601C34.5911 4.75066 34.8954 3.85879 35.3966 3.07672C35.8774 2.31156 36.539 1.67634 37.323 1.22701C38.107 0.777677 38.9895 0.52802 39.8928 0.5C39.9803 0.5 40.0702 0.5 40.1601 0.5H41.9114V4.00258H40.1601H40.0305C39.6931 4.0103 39.3629 4.10198 39.0698 4.26933C38.7766 4.43669 38.5298 4.67444 38.3516 4.96111C38.156 5.26627 38.0361 5.61378 38.002 5.97467C37.9678 6.33556 38.0205 6.69938 38.1555 7.03581C38.3045 7.36971 38.5389 7.65843 38.835 7.87291L41.9511 10.215C42.0163 10.2639 42.0779 10.3173 42.1356 10.3749C42.9322 11.158 43.4793 12.1594 43.7078 13.2529C43.9364 14.3463 43.8362 15.483 43.4199 16.5196C43.0322 17.544 42.3501 18.4307 41.4594 19.0681C40.5687 19.7055 39.5093 20.0651 38.4147 20.1016C38.3248 20.1063 38.2349 20.1074 38.145 20.1074Z" fill="black"/>
<path d="M11.2952 13.9268C11.2952 16.507 13.5197 18.6646 16.1863 18.6646C18.8529 18.6646 21.0152 16.5736 21.0152 13.9945V2.28308" stroke="black" stroke-width="3.6611" stroke-linecap="square" stroke-linejoin="round"/>
<path d="M36.4073 20.097L36.4236 20.1063C33.5468 20.1063 31.3729 18.1064 30.9748 15.4876L30.8907 15.0778C30.5708 13.6955 29.4009 12.6587 28.0046 12.6587H26.2533V9.15613H28.0046C31.3087 9.15613 33.7255 11.6558 34.4155 15.0124C34.4248 15.0556 34.4353 15.0988 34.447 15.1409L34.5089 15.3522C34.5386 15.4629 34.5809 15.5698 34.635 15.6709C35.0658 16.4508 35.4966 16.5722 36.3944 16.6049" fill="black"/>
<path d="M66.0514 15.0197C64.7672 13.6863 64.8092 11.8977 64.8092 11.8802V11.8977L61.3066 11.705C61.2891 12.0343 61.1899 14.9905 63.4735 17.3967C64.9633 18.9706 67.0672 19.8859 69.7373 20.1322V16.611C68.1238 16.4137 66.885 15.8825 66.0514 15.0197Z" fill="black"/>
<path d="M71.332 0.5V4.03643H78.8625L71.3086 16.6165L71.3086 20.1144H83.4509V16.6118H75.7581L83.4509 3.87298V0.5L71.332 0.5Z" fill="black"/>
<path d="M64.2999 9.7998H61.2999V11.7998H64.2999V9.7998Z" fill="black"/>
<path d="M65.0001 10.5H62.0001V12.5H65.0001V10.5Z" fill="black"/>
<path d="M51.9752 20.1145V5.10245C51.9974 3.51812 53.3436 2.25136 54.9804 2.27354C56.6173 2.29572 57.9261 3.59635 57.8992 5.18068V20.1145" stroke="black" stroke-width="3.6611" stroke-miterlimit="10"/>
<path d="M1.84058 20.107V2.31155H13.0488" stroke="black" stroke-width="3.6611" stroke-miterlimit="10"/>
<path d="M3.47546 7.62247H7.73693" stroke="black" stroke-width="3.6611" stroke-miterlimit="10"/>
<path d="M26.5807 0.528473V20.1139" stroke="black" stroke-width="3.6611" stroke-miterlimit="10"/>
<path d="M46.7788 0.5C46.7332 8.14988 46.7788 20.1144 46.7788 20.1144" stroke="black" stroke-width="3.6611" stroke-miterlimit="10"/>
<path d="M11.2887 12.525L11.2887 5.77655" stroke="black" stroke-width="3.6611" stroke-miterlimit="10"/>
<path d="M25.9607 9.91447L27.8276 12.7901L34.5992 0.557922H31.1609L25.9607 9.91447Z" fill="black"/>
<path d="M56.5663 12.1966L50.4578 12.0939L50.4975 13.3186C50.7847 13.1598 52.9014 12.0577 54.7006 12.8808C54.8285 12.9418 54.9525 13.0108 55.0718 13.0874C56.2214 13.789 57.5441 14.1553 58.8908 14.1452V12.6718C58.0918 12.6724 57.3009 12.5108 56.5663 12.1966Z" fill="black"/>
<path d="M55.7536 11.7536C56.0122 11.9253 56.2857 12.0734 56.5708 12.1961L58.8965 12.2347V11.1921C58.0913 11.2003 57.3012 10.973 56.6234 10.5382L56.5428 10.4869C54.2918 9.18157 51.9054 9.61005 50.3993 10.1366L50.4495 11.7023C51.582 11.2259 53.7746 10.6083 55.7536 11.7536Z" fill="black"/>
<path d="M56.5664 12.196C57.3015 12.5103 58.0927 12.672 58.8921 12.6712V12.2345L56.5664 12.196Z" fill="black"/>
<path d="M55.7532 11.754C53.7684 10.6052 51.5816 11.2263 50.4445 11.7015L50.4573 12.0938L56.5658 12.1965C56.2823 12.0735 56.0103 11.9254 55.7532 11.754Z" fill="black"/>
</svg>
